<svg width="32" height="32" viewBox="0 0 32 32" fill="none" xmlns="http://www.w3.org/2000/svg"><path fill-rule="evenodd" clip-rule="evenodd" d="M32 16c0 8.837-7.163 16-16 16S0 24.837 0 16 7.163 0 16 0s16 7.163 16 16zM16.6 9.268l-2.444 2.444a4.34 4.34 0 0 0 0 6.13.877.877 0 0 0 1.245 0 .88.88 0 0 0 0-1.245 2.578 2.578 0 0 1 0-3.64l2.443-2.445a2.577 2.577 0 0 1 4.396 1.82c0 .689-.268 1.335-.755 1.821a.88.88 0 0 0 1.245 1.245A4.305 4.305 0 0 0 24 12.333a4.307 4.307 0 0 0-1.27-3.065 4.34 4.34 0 0 0-6.13 0zm-7.33 7.329a.88.88 0 0 1 1.245 1.245 2.557 2.557 0 0 0-.755 1.82c0 .688.268 1.335.755 1.821.973.973 2.67.973 3.642 0L16.6 19.04a2.557 2.557 0 0 0 .753-1.82c0-.689-.268-1.336-.753-1.822a.88.88 0 1 1 1.245-1.245 4.308 4.308 0 0 1 1.27 3.066c0 1.159-.451 2.247-1.27 3.066l-2.443 2.443a4.309 4.309 0 0 1-3.066 1.27 4.305 4.305 0 0 1-3.066-1.27A4.307 4.307 0 0 1 8 19.663a4.31 4.31 0 0 1 1.27-3.066z" fill="#C4C4C4"/></svg>