<svg width="32" height="32" viewBox="0 0 32 32" fill="none" xmlns="http://www.w3.org/2000/svg"><path fill-rule="evenodd" clip-rule="evenodd" d="M16 0C7.163 0 0 7.163 0 16s7.163 16 16 16 16-7.163 16-16S24.837 0 16 0zM7.682 13.252h3.626v10.894H7.682V13.252zm3.863-3.37C11.522 8.814 10.758 8 9.518 8c-1.24 0-2.052.814-2.052 1.882 0 1.046.787 1.883 2.004 1.883h.024c1.264 0 2.051-.837 2.051-1.883zm8.662 3.114c2.386 0 4.175 1.557 4.175 4.904v6.246h-3.626v-5.828c0-1.464-.525-2.463-1.837-2.463-1.002 0-1.599.673-1.86 1.324-.097.233-.12.558-.12.883v6.085h-3.627s.048-9.872 0-10.895h3.627v1.543c.481-.742 1.343-1.799 3.268-1.799z" fill="#121516" fill-opacity=".3"/></svg>