<svg width="32" height="32" viewBox="0 0 32 32" fill="none" xmlns="http://www.w3.org/2000/svg"><path fill-rule="evenodd" clip-rule="evenodd" d="M16 0C7.163 0 0 7.163 0 16s7.163 16 16 16 16-7.163 16-16S24.837 0 16 0zm-.446 13.559l-.033-.554c-.1-1.435.783-2.746 2.182-3.254.515-.18 1.388-.203 1.959-.045.224.068.649.294.951.497l.548.373.605-.192c.336-.102.783-.271.985-.384.19-.102.358-.159.358-.125 0 .192-.414.848-.761 1.21-.47.508-.336.553.615.214.571-.192.582-.192.47.023-.067.113-.414.508-.783.87-.627.62-.66.689-.66 1.208 0 .803-.38 2.475-.761 3.39-.706 1.717-2.216 3.491-3.727 4.384-2.127 1.254-4.958 1.57-7.342.836-.795-.248-2.16-.881-2.16-.994 0-.034.414-.08.918-.09a6.302 6.302 0 0 0 3-.837l.603-.361-.693-.238c-.985-.338-1.87-1.118-2.093-1.853-.067-.237-.045-.248.582-.248l.649-.011-.549-.26c-.649-.328-1.242-.882-1.533-1.446-.213-.407-.481-1.436-.403-1.515.023-.034.258.034.526.125.772.282.873.214.426-.26-.84-.859-1.097-2.136-.694-3.345l.19-.542.739.735c1.51 1.48 3.29 2.36 5.327 2.62l.56.069z" fill="#121516" fill-opacity=".3"/></svg>