<svg width="64" height="65" viewBox="0 0 64 65" fill="none" xmlns="http://www.w3.org/2000/svg"><path d="M32 .858c-17.674 0-32 14.325-32 32 0 17.674 14.326 32 32 32s32-14.326 32-32c0-17.675-14.326-32-32-32zm8.229 61.405a6.249 6.249 0 0 1-1.95.303c-1.702 0-3.498-.616-5.315-1.74 2.544-1.895 5.072-4.665 7.397-8.113 2.027.617 3.97 1.041 5.794 1.267-1.069 4.467-3.117 7.37-5.926 8.284zm-16.452 0c-2.803-.914-4.858-3.816-5.92-8.283 1.822-.226 3.766-.65 5.793-1.267 2.325 3.448 4.853 6.224 7.397 8.113-1.817 1.124-3.618 1.74-5.315 1.74a6.37 6.37 0 0 1-1.955-.303zm-.518-58.547c2.517 0 5.25 1.344 7.942 3.707-1.388 1.327-2.748 2.902-4.059 4.693-3.97-1.504-7.716-2.32-10.96-2.407 1.162-2.997 2.908-4.968 5.122-5.69a6.422 6.422 0 0 1 1.955-.303zm17.487 0a6.36 6.36 0 0 1 1.95.303c2.22.722 3.966 2.693 5.122 5.69-3.238.088-6.984.903-10.96 2.407-1.311-1.79-2.671-3.366-4.06-4.693 2.7-2.363 5.431-3.707 7.948-3.707zM49.4 21.627a52.636 52.636 0 0 0-7.893-1.768c-1.228-2.49-2.572-4.78-3.987-6.818 3.833-1.421 7.485-2.209 10.685-2.236.413 1.316.732 2.787.942 4.422.258 2 .341 4.148.253 6.4zm-1.344 24.3c-.027-2.417-.253-4.995-.677-7.672 2.004-1.933 3.783-3.91 5.298-5.882a38.197 38.197 0 0 1 3.084 4.704c.87 1.586 1.52 3.1 1.961 4.516a25.24 25.24 0 0 1-3.762 2.148c-1.795.854-3.778 1.58-5.904 2.187zm-38.014-2.18c-1.421-.672-2.672-1.389-3.762-2.148.44-1.421 1.09-2.93 1.96-4.517a38.197 38.197 0 0 1 3.085-4.703 54.177 54.177 0 0 0 5.298 5.882c-.43 2.676-.655 5.254-.677 7.672-2.12-.611-4.103-1.338-5.904-2.187zm4.813-28.525c.21-1.636.53-3.106.942-4.423 3.2.028 6.852.815 10.685 2.236-1.415 2.038-2.754 4.324-3.987 6.819a53.324 53.324 0 0 0-7.893 1.768c-.083-2.247 0-4.395.253-6.4zM32 48.026a64.108 64.108 0 0 1-7.805-4.869 63.818 63.818 0 0 1-6.394-5.298 64.03 64.03 0 0 1 2.236-9.011 63.904 63.904 0 0 1 3.173-7.937c.027-.022.055-.044.088-.066a64.753 64.753 0 0 1 8.707-.578c2.991 0 5.916.198 8.708.578.028.022.055.044.088.066a64.223 64.223 0 0 1 3.173 7.937 64.03 64.03 0 0 1 2.236 9.01 65.87 65.87 0 0 1-6.395 5.3A64.219 64.219 0 0 1 32 48.025c.005 0 .005 0 0 0zm-14.931-12.21a63.54 63.54 0 0 1-1.83-7.981 61.675 61.675 0 0 1 6.104-5.497 66.4 66.4 0 0 0-4.274 13.477zM16 36.09a50.32 50.32 0 0 1-3.977-4.61 51.756 51.756 0 0 1 2.27-2.644A65.77 65.77 0 0 0 16 36.091zm30.937-.276a66.4 66.4 0 0 0-4.274-13.477 62.302 62.302 0 0 1 6.103 5.497 63.54 63.54 0 0 1-1.829 7.98zm2.776-6.978c.804.87 1.559 1.757 2.27 2.644a50.32 50.32 0 0 1-3.977 4.61 65.77 65.77 0 0 0 1.707-7.254zM38.83 19.523a66.861 66.861 0 0 0-6.825-.352c-2.346 0-4.626.121-6.824.352a62.498 62.498 0 0 1 6.824-4.048 62.643 62.643 0 0 1 6.825 4.048zm-5.613-4.654a54.432 54.432 0 0 1 3.244-1.426 50.061 50.061 0 0 1 3.272 5.375 62.282 62.282 0 0 0-6.516-3.949zm-8.95 3.944a51.536 51.536 0 0 1 3.272-5.376c1.074.43 2.153.904 3.244 1.427a65.468 65.468 0 0 0-6.516 3.949zm-3.271 2.401a63.7 63.7 0 0 0-5.954 5.26 52.564 52.564 0 0 1-.375-3.723 50.154 50.154 0 0 1 6.329-1.537zm-6.924 6.257a51.121 51.121 0 0 0-2.72 3.095 37.462 37.462 0 0 1-2.402-3.778 25.108 25.108 0 0 1-.677-1.322 29.468 29.468 0 0 1 1.773-.914 35.805 35.805 0 0 1 3.547-1.443c.094 1.415.254 2.875.48 4.362zm-3.431 3.993c-2.5 3.244-4.307 6.466-5.282 9.435-2.589-2.06-3.977-4.373-3.977-6.752 0-2.92 2.088-5.745 5.938-8.124.859 1.773 1.977 3.602 3.321 5.441zm6.791 8.912a64.86 64.86 0 0 0 2.859 6.582 51.948 51.948 0 0 1-3.25-.733c.006-1.878.138-3.839.391-5.85zm1.013-.43a65.672 65.672 0 0 0 5.106 4.103 66.466 66.466 0 0 0 6.086 3.933 62.49 62.49 0 0 1-7.975-.782 62.509 62.509 0 0 1-3.217-7.254zm11.44 9.143a48.767 48.767 0 0 1-5.772 2.319 50.082 50.082 0 0 1-1.796-2.997c2.407.37 4.946.6 7.568.678zm4.483-1.107a66.452 66.452 0 0 0 6.086-3.933 65.672 65.672 0 0 0 5.106-4.103 62.509 62.509 0 0 1-3.217 7.254 62.49 62.49 0 0 1-7.975.782zm7.32.43a50.082 50.082 0 0 1-1.795 2.996 48.767 48.767 0 0 1-5.773-2.319 62.111 62.111 0 0 0 7.568-.678zm4.886-8.036c.253 2.01.38 3.97.385 5.849a51.064 51.064 0 0 1-3.25.733 62.495 62.495 0 0 0 2.864-6.582zm6.79-8.912c1.344-1.84 2.457-3.668 3.322-5.441 3.85 2.379 5.937 5.204 5.937 8.124 0 2.379-1.388 4.692-3.976 6.752-.975-2.963-2.782-6.19-5.282-9.435zm1.691-4.676a36.845 36.845 0 0 1-2.401 3.778 51.121 51.121 0 0 0-2.72-3.095c.225-1.487.385-2.947.478-4.357 1.245.436 2.435.915 3.547 1.444.623.291 1.212.6 1.774.914-.21.43-.43.87-.678 1.316zm-6.091-.314a63.714 63.714 0 0 0-5.954-5.26c2.225.397 4.346.91 6.328 1.543a52.473 52.473 0 0 1-.374 3.717zM35.806 12.53A54.378 54.378 0 0 0 32 14.247a54.378 54.378 0 0 0-3.806-1.718C29.428 10.865 30.706 9.395 32 8.16c1.3 1.24 2.578 2.704 3.806 4.368zM15.014 9.703c-1.548.05-2.957.275-4.202.694a31.01 31.01 0 0 1 6.29-4.599c-.838 1.074-1.537 2.385-2.088 3.905zm-7.011 3.718c1.707-1.878 4.367-2.479 6.642-2.6-.93 3.101-1.31 6.918-1.118 11.153-2.115.716-4.037 1.553-5.717 2.49-1.878-4.324-2-7.953-.308-10.404.165-.215.33-.43.5-.64zM6.852 25.026c-2.644 1.624-4.6 3.508-5.662 5.557A30.645 30.645 0 0 1 5.249 17.42c-.165 2.252.396 4.846 1.603 7.606zM5.023 42.028c-.49 1.856-.633 3.597-.391 5.155a30.726 30.726 0 0 1-3.013-8.724c.804 1.267 1.956 2.467 3.404 3.57zm1.856 7.904c-1.31-1.807-1.608-4.285-.903-7.227 2.616 1.774 6.02 3.261 9.98 4.363.033 2.131.226 4.12.573 5.937-.546.039-1.09.066-1.614.066-2.627 0-6.152-.545-8.036-3.14zm10.443 1.129a35.937 35.937 0 0 1-.27-3.701c1.245.313 2.539.589 3.877.826a52.305 52.305 0 0 0 2.088 3.563c-1.873.556-3.685.948-5.398 1.151-.11-.589-.215-1.2-.297-1.84zm7.413 1.294A52.661 52.661 0 0 0 32 49.271a52.661 52.661 0 0 0 7.265 3.084C36.968 55.72 34.484 58.42 32 60.193c-2.479-1.774-4.968-4.473-7.265-7.838zm16.254-.606a53.197 53.197 0 0 0 2.087-3.563 55.192 55.192 0 0 0 3.877-.826 37.671 37.671 0 0 1-.27 3.7c-.082.64-.181 1.251-.297 1.84-1.718-.203-3.53-.594-5.397-1.15zm7.066-4.681c3.955-1.096 7.364-2.589 9.98-4.362.7 2.935.408 5.414-.903 7.226-1.884 2.594-5.409 3.14-8.03 3.14-.524 0-1.063-.028-1.614-.067.341-1.818.534-3.806.567-5.937zm10.927-5.04c1.449-1.102 2.6-2.302 3.404-3.569a30.667 30.667 0 0 1-3.013 8.724c.237-1.558.1-3.299-.39-5.155zm-1.834-17.002c1.212-2.76 1.774-5.354 1.598-7.607a30.645 30.645 0 0 1 4.059 13.164c-1.058-2.054-3.013-3.938-5.657-5.557zm-.953-.562c-1.68-.936-3.602-1.774-5.717-2.49.193-4.24-.187-8.052-1.118-11.153 2.275.121 4.935.722 6.643 2.6.17.21.336.424.501.639 1.69 2.45 1.57 6.086-.308 10.404zm-7.204-14.76c-.55-1.521-1.25-2.832-2.087-3.906a31.01 31.01 0 0 1 6.29 4.6c-1.245-.42-2.655-.645-4.203-.695zM39.09 2.79c-2.303.452-4.715 1.806-7.084 3.9-2.368-2.094-4.786-3.448-7.088-3.9A30.665 30.665 0 0 1 32 1.959c2.434 0 4.814.292 7.089.832zM8.279 52.63c1.745 1.035 4.009 1.542 6.63 1.542.595 0 1.212-.033 1.84-.089.755 3.217 2.027 5.795 3.784 7.458A30.977 30.977 0 0 1 8.278 52.63zM27.62 63.441c1.432-.32 2.903-.98 4.379-1.95 1.476.97 2.947 1.63 4.379 1.95a31.039 31.039 0 0 1-4.379.314 30.24 30.24 0 0 1-4.379-.314zm15.846-1.895c1.757-1.668 3.035-4.24 3.784-7.457.628.05 1.25.088 1.84.088 2.621 0 4.885-.507 6.63-1.542a31.006 31.006 0 0 1-12.254 8.911z" fill="#E1E3E4"/></svg>