<?xml version="1.0" standalone="no"?>
<!DOCTYPE svg PUBLIC "-//W3C//DTD SVG 20010904//EN"
 "http://www.w3.org/TR/2001/REC-SVG-20010904/DTD/svg10.dtd">
<svg version="1.0" xmlns="http://www.w3.org/2000/svg"
 width="700.000000pt" height="700.000000pt" viewBox="0 0 700.000000 700.000000"
 preserveAspectRatio="xMidYMid meet">
<metadata>
Created by potrace 1.11, written by Peter Selinger 2001-2013
</metadata>
<g transform="translate(0.000000,700.000000) scale(0.100000,-0.100000)"
fill="#000000" stroke="none">
<path d="M3270 6969 c-222 -19 -378 -42 -562 -85 -417 -95 -843 -285 -1203
-537 -167 -117 -283 -214 -446 -377 -163 -162 -228 -235 -322 -360 -32 -41
-60 -79 -65 -85 -25 -33 -144 -218 -167 -260 -15 -27 -31 -54 -35 -60 -11 -13
-121 -234 -155 -310 -70 -157 -159 -424 -201 -603 -39 -170 -71 -380 -81 -542
-13 -189 -6 -514 11 -631 2 -13 7 -46 10 -74 15 -124 54 -317 92 -459 204
-750 659 -1415 1289 -1881 390 -288 869 -506 1325 -601 41 -9 84 -18 95 -20
56 -12 291 -44 370 -50 249 -20 589 -5 844 37 145 24 124 20 276 58 486 122
942 349 1340 668 112 90 385 355 465 452 329 397 550 811 694 1301 26 90 72
289 81 355 3 22 8 50 10 62 8 36 18 123 32 278 13 145 5 617 -11 644 -2 3 -7
34 -10 69 -4 34 -11 86 -17 115 -5 29 -12 68 -15 87 -12 78 -69 294 -114 431
-198 604 -561 1144 -1050 1559 -348 296 -755 522 -1195 663 -105 34 -327 91
-390 100 -16 3 -41 8 -55 11 -38 9 -155 24 -315 42 -81 9 -432 11 -525 3z
m504 -123 c23 -3 73 -8 111 -12 67 -5 319 -48 360 -61 13 -4 -2 -11 -50 -24
-186 -48 -411 -171 -610 -334 -44 -36 -82 -65 -85 -65 -3 0 -41 29 -85 65
-203 166 -474 310 -640 341 l-40 8 45 13 c25 7 59 15 75 18 17 2 39 6 50 8 54
11 99 18 142 23 27 2 59 7 73 9 14 3 77 8 140 11 63 4 116 8 118 9 5 5 353 -4
396 -9z m-1049 -201 c189 -39 405 -151 608 -314 l78 -63 -53 -57 c-29 -31 -62
-65 -73 -77 -66 -67 -232 -267 -291 -348 l-21 -29 -169 56 c-243 81 -361 113
-564 151 -14 3 -35 7 -48 10 -72 16 -297 40 -369 40 -23 0 -33 4 -33 14 0 28
102 222 157 299 198 276 461 383 778 318z m1895 -2 c225 -55 416 -235 549
-515 49 -104 50 -116 14 -115 -39 1 -225 -13 -232 -17 -3 -2 -33 -7 -65 -10
-33 -4 -78 -11 -100 -16 -23 -4 -68 -14 -101 -21 -156 -32 -373 -93 -540 -153
-55 -20 -105 -36 -111 -36 -6 0 -26 21 -44 46 -71 100 -271 330 -398 459 -6 6
155 130 243 187 166 108 370 191 500 204 33 3 62 8 64 9 8 8 162 -7 221 -22z
m-2784 -265 c-52 -76 -113 -188 -151 -283 -16 -38 -30 -71 -31 -73 -1 -1 -23
-5 -50 -8 -179 -17 -216 -23 -317 -48 l-88 -22 48 43 c75 68 219 184 316 253
67 48 300 196 314 199 1 1 -17 -27 -41 -61z m3440 -31 c180 -112 514 -372 514
-400 0 -4 -17 0 -37 8 -47 17 -185 43 -273 51 -95 8 -132 12 -135 16 -2 2 -19
41 -38 88 -39 94 -101 210 -153 282 l-34 47 33 -18 c19 -10 74 -44 123 -74z
m-1700 -239 c99 -102 233 -259 307 -359 l28 -39 -57 -25 c-31 -14 -58 -25 -60
-25 -4 0 -75 -32 -202 -91 -46 -22 -88 -39 -93 -39 -5 0 -44 16 -86 36 -43 20
-130 59 -193 86 -63 28 -118 53 -123 57 -15 14 374 471 401 471 4 0 39 -33 78
-72z m-1626 -222 c173 -14 476 -77 683 -142 78 -24 260 -85 264 -89 1 0 -22
-37 -52 -82 -106 -159 -230 -371 -325 -555 l-55 -106 -80 -12 c-44 -6 -114
-18 -155 -27 -41 -8 -86 -17 -100 -20 -69 -12 -299 -67 -404 -97 l-118 -34 5
267 c3 146 8 280 10 296 3 17 8 57 11 90 6 60 15 122 22 160 2 11 8 45 14 75
14 80 23 120 56 236 l15 51 67 -3 c37 -1 101 -5 142 -8z m3324 -40 c42 -147
74 -311 91 -461 3 -27 8 -70 11 -95 3 -25 8 -163 11 -307 l6 -261 -104 29
c-143 40 -352 92 -419 103 -14 2 -59 11 -100 19 -41 9 -111 21 -156 28 l-80
12 -52 101 c-89 175 -227 409 -365 617 l-17 26 138 46 c188 63 477 138 587
152 32 4 98 15 130 21 11 2 63 7 115 10 52 4 96 7 97 8 1 1 23 2 47 2 l46 1
14 -51z m204 40 c229 -21 451 -108 582 -228 98 -89 179 -234 210 -375 24 -109
22 -326 -4 -443 -10 -41 -19 -82 -21 -90 -16 -76 -98 -306 -114 -323 -5 -5
-73 23 -152 62 -140 67 -278 126 -406 171 l-63 23 -1 226 c-1 124 -2 242 -3
261 -4 48 -16 189 -20 220 -2 14 -6 50 -10 80 -15 113 -39 234 -67 338 -18 66
-19 99 0 88 3 -3 35 -7 69 -10z m-3868 -3 c0 -5 -7 -30 -15 -57 -8 -26 -26
-105 -39 -175 -22 -111 -28 -151 -41 -251 -4 -27 -16 -170 -21 -235 -1 -22 -3
-140 -4 -261 l-1 -222 -92 -32 c-120 -43 -298 -120 -418 -181 -52 -27 -99 -49
-103 -49 -9 0 -40 74 -76 180 -143 424 -115 768 82 996 95 109 219 188 367
234 149 46 361 77 361 53z m1475 -302 c137 -57 275 -120 275 -126 0 -2 -44
-27 -97 -56 -116 -62 -339 -197 -478 -288 -55 -36 -106 -70 -113 -74 -12 -8 2
20 86 168 49 84 251 405 256 405 1 0 33 -13 71 -29z m954 -50 c114 -170 311
-508 288 -494 -7 4 -57 37 -112 74 -131 87 -355 222 -478 288 -54 29 -95 57
-90 61 23 23 335 151 344 142 3 -4 25 -36 48 -71z m-452 -187 c122 -65 152
-81 283 -159 131 -78 360 -225 360 -231 0 -3 -24 -2 -52 1 -29 3 -69 8 -89 10
-222 25 -982 25 -1154 0 -79 -11 -169 -15 -160 -7 22 21 216 145 337 217 34
20 383 215 385 215 2 0 42 -21 90 -46z m-2996 -270 c4 -198 52 -414 142 -636
l34 -85 -36 -23 c-224 -149 -417 -327 -511 -473 -56 -87 -74 -105 -66 -64 3
12 8 49 11 82 9 87 14 127 20 155 3 14 7 43 11 65 20 141 111 461 179 630 56
138 204 449 211 442 2 -1 4 -43 5 -93z m5914 -83 c132 -266 241 -583 289 -844
21 -114 31 -180 42 -282 3 -27 7 -63 9 -78 2 -16 2 -27 0 -25 -1 1 -31 45 -66
97 -101 151 -333 367 -505 467 l-42 25 23 52 c56 129 127 379 142 502 4 33 7
106 8 162 0 98 1 102 17 81 9 -13 47 -83 83 -157z m-2590 -135 c116 -8 212
-15 273 -22 23 -2 63 -6 90 -9 179 -18 175 -16 207 -90 13 -27 36 -79 52 -115
209 -456 433 -1187 498 -1624 l7 -41 -88 -80 c-337 -309 -786 -638 -1196 -878
-172 -101 -241 -137 -263 -137 -8 0 -33 11 -55 25 -22 14 -42 25 -45 25 -4 0
-44 22 -91 50 -47 27 -89 50 -94 50 -6 0 -10 5 -10 10 0 6 -4 10 -9 10 -12 0
-159 92 -326 203 -248 165 -595 437 -820 642 -87 79 -87 80 -81 120 29 198
139 639 232 925 103 321 315 844 355 877 8 6 43 14 79 18 36 4 79 9 95 11 29
3 105 11 190 19 22 2 105 7 185 10 80 4 146 8 147 9 6 5 577 -2 668 -8z m892
-112 c43 -8 89 -17 103 -20 58 -12 312 -77 389 -100 l83 -26 -7 -106 c-4 -59
-8 -109 -10 -112 -3 -5 -17 -130 -19 -163 0 -9 -3 -16 -7 -15 -4 2 -52 46
-106 98 -146 141 -342 314 -465 410 -32 25 -58 48 -58 53 0 4 4 6 9 3 5 -3 44
-13 88 -22z m-2522 8 c-6 -5 -57 -47 -114 -93 -58 -46 -114 -93 -126 -104 -12
-11 -57 -51 -101 -90 -43 -38 -124 -114 -179 -167 -55 -53 -103 -94 -106 -90
-4 4 -10 36 -13 72 -3 36 -8 79 -10 95 -2 17 -7 66 -11 109 -3 44 -8 83 -10
86 -10 16 20 34 96 56 46 14 92 27 102 29 10 2 51 13 91 24 41 11 87 23 102
26 16 3 75 16 132 28 116 26 161 31 147 19z m-26 -308 c-64 -157 -215 -582
-223 -629 -1 -5 -10 -36 -19 -67 -20 -65 -115 -437 -122 -477 -3 -14 -9 -39
-13 -56 -8 -28 -9 -27 -24 30 -64 242 -99 388 -123 500 -34 165 -31 152 -40
205 -3 25 -8 57 -11 72 -3 23 13 43 127 155 72 70 136 133 143 138 115 103
374 323 382 325 1 0 -34 -88 -77 -196z m2556 72 c33 -28 73 -62 89 -76 16 -14
52 -46 80 -72 28 -25 62 -56 76 -68 14 -12 78 -74 143 -137 134 -133 123 -96
85 -293 -11 -58 -22 -118 -25 -135 -6 -38 -108 -445 -127 -505 l-13 -45 -7 35
c-86 417 -262 971 -441 1384 l-17 40 49 -39 c26 -21 75 -62 108 -89z m-3310
-26 c10 -121 23 -238 36 -315 13 -85 13 -85 -32 -135 -23 -25 -58 -63 -78 -85
-20 -22 -59 -67 -86 -100 -28 -33 -59 -70 -71 -83 l-20 -23 -91 138 c-50 76
-111 174 -135 218 -106 188 -108 193 -95 203 49 39 550 260 564 248 1 -1 5
-31 8 -66z m4190 -4 c16 -7 59 -26 95 -41 36 -15 114 -52 173 -82 100 -50 108
-56 103 -78 -10 -38 -131 -249 -229 -398 l-92 -139 -20 24 c-11 13 -40 48 -65
78 -56 67 -113 130 -168 189 -41 45 -42 48 -37 96 10 77 16 128 20 154 2 12 7
60 11 105 4 44 8 88 10 96 1 8 3 27 3 42 l1 27 82 -30 c45 -16 96 -36 113 -43z
m-4840 -315 c54 -109 130 -234 230 -383 l93 -136 -66 -89 c-137 -184 -303
-457 -380 -623 -19 -41 -56 -128 -82 -193 l-47 -119 -34 28 c-19 15 -69 63
-111 106 -196 199 -288 402 -282 621 8 284 204 564 567 811 38 25 70 46 73 46
2 0 19 -31 39 -69z m5456 -16 c116 -84 131 -97 224 -190 299 -298 369 -638
197 -955 -59 -110 -183 -256 -291 -345 l-45 -37 -33 89 c-38 98 -46 118 -111
253 -88 181 -228 410 -364 593 l-65 88 111 167 c61 92 142 224 180 294 79 148
59 143 197 43z m-700 -433 l59 -73 -57 -72 c-117 -148 -361 -422 -369 -414 -2
1 6 32 17 68 33 109 105 406 135 560 l28 145 64 -70 c35 -39 90 -104 123 -144z
m-4022 146 c30 -174 93 -439 150 -643 l20 -70 -86 90 c-87 91 -182 201 -287
332 l-58 73 68 82 c38 46 84 100 103 121 19 21 42 47 50 57 9 11 19 20 22 20
4 0 12 -28 18 -62z m-274 -394 c121 -150 231 -272 392 -436 90 -92 123 -132
119 -145 -5 -18 -7 -31 -25 -178 -25 -195 -37 -357 -45 -585 -2 -39 -5 -45
-21 -42 -28 5 -337 108 -382 128 -21 9 -47 20 -58 24 -263 110 -584 285 -585
318 0 23 71 204 126 320 90 189 234 427 370 611 39 53 49 62 58 50 6 -9 29
-37 51 -65z m4497 -11 c176 -241 322 -498 417 -734 77 -190 79 -173 -36 -244
-209 -128 -533 -274 -798 -358 -160 -51 -149 -52 -151 13 -2 76 -15 309 -19
345 -2 17 -7 59 -10 95 -4 36 -15 126 -25 200 l-19 134 133 136 c74 74 153
158 177 185 24 28 46 52 49 55 14 14 122 143 165 197 28 35 51 63 52 63 1 0
30 -39 65 -87z m-5553 -656 c56 -73 157 -178 242 -249 36 -30 64 -61 63 -69
-2 -8 -10 -45 -18 -84 -23 -101 -31 -194 -30 -329 l2 -118 -45 93 c-82 170
-175 422 -219 589 -9 37 -43 188 -48 214 -6 33 -7 33 53 -47z m6537 46 c-3
-10 -17 -67 -31 -128 -49 -212 -149 -497 -227 -648 -18 -34 -32 -64 -33 -67 0
-3 -6 -14 -12 -25 -9 -15 -11 7 -10 105 1 69 -2 152 -6 185 -10 72 -37 206
-44 219 -3 4 -1 11 4 15 71 45 249 221 308 305 40 55 61 71 51 39z m-4696
-184 c19 -17 57 -50 84 -73 26 -22 58 -49 70 -59 11 -10 34 -28 49 -40 16 -12
52 -40 80 -63 149 -116 269 -202 467 -334 125 -83 340 -216 374 -231 27 -12
-263 0 -404 16 -25 2 -67 7 -95 10 -133 14 -334 43 -345 50 -20 13 -216 437
-296 643 -26 64 -48 121 -51 125 -9 15 31 -11 67 -44z m2830 -46 c-42 -110
-84 -213 -105 -259 -8 -16 -28 -61 -45 -100 -47 -105 -152 -314 -160 -319 -4
-2 -22 -7 -41 -10 -19 -3 -45 -7 -59 -10 -29 -5 -105 -14 -170 -21 -25 -3 -56
-6 -69 -9 -12 -2 -60 -7 -105 -11 -44 -3 -97 -8 -116 -10 -19 -1 -93 -6 -165
-9 l-130 -6 105 63 c326 197 651 427 915 648 50 41 92 77 95 80 15 15 81 70
85 70 2 0 -14 -44 -35 -97z m-2966 -63 c21 -52 43 -108 50 -125 48 -113 115
-263 158 -352 27 -58 48 -107 45 -109 -2 -2 -33 2 -68 10 -35 8 -75 17 -89 19
-14 3 -45 10 -70 17 -25 6 -61 16 -81 21 l-36 9 3 83 c5 163 19 376 29 442 1
11 3 38 4 60 1 52 10 39 55 -75z m3127 73 c0 -16 2 -41 4 -58 11 -80 23 -272
29 -453 l3 -72 -36 -9 c-100 -26 -159 -41 -191 -46 -19 -3 -52 -10 -74 -16
-21 -6 -40 -8 -43 -5 -3 3 18 54 47 113 59 122 186 416 220 511 24 66 40 79
41 35z m-4328 -261 c67 -43 332 -180 417 -216 131 -54 288 -111 418 -152 81
-25 149 -48 152 -50 3 -3 6 -20 6 -37 4 -84 15 -276 19 -307 2 -19 7 -56 10
-83 6 -54 13 -103 25 -167 5 -25 6 -47 4 -49 -7 -7 -325 -4 -369 3 -22 4 -67
11 -100 16 -219 35 -414 133 -535 267 -60 67 -130 206 -156 308 -19 75 -25
265 -11 365 14 109 28 161 40 153 7 -4 42 -27 80 -51z m5593 -92 c14 -109 9
-291 -10 -370 -55 -223 -185 -385 -391 -485 -192 -94 -400 -127 -733 -116 -36
1 -43 4 -38 19 3 9 7 34 10 55 3 20 8 52 11 70 9 54 14 96 20 181 4 44 9 92
11 106 2 14 4 67 5 118 1 86 3 94 23 102 11 5 93 31 182 59 298 95 602 232
801 360 l78 50 12 -47 c7 -26 16 -72 19 -102z m-4399 -376 c37 -9 77 -18 88
-20 11 -2 34 -7 50 -11 39 -9 33 -8 86 -16 77 -13 102 -18 110 -23 4 -2 40
-61 80 -132 40 -70 90 -154 111 -187 20 -33 34 -63 29 -68 -7 -7 -237 -68
-306 -81 -131 -24 -252 -42 -261 -39 -10 4 -19 47 -29 144 -1 8 -5 31 -8 50
-4 19 -9 68 -12 109 -4 41 -8 89 -10 105 -3 27 -8 159 -6 178 1 9 -1 10 78 -9z
m3164 -59 c-1 -38 -4 -86 -6 -105 -1 -19 -6 -69 -9 -110 -7 -76 -9 -92 -27
-210 -15 -103 -10 -98 -82 -88 -124 16 -497 99 -515 114 -2 1 32 62 75 136 61
102 129 221 147 255 1 1 21 4 46 8 58 8 266 52 305 64 62 20 69 14 66 -64z
m-2566 -50 c82 -10 212 -24 275 -30 36 -4 75 -8 86 -10 12 -2 93 -6 180 -10
88 -4 160 -9 162 -10 1 -1 -50 -26 -115 -55 -167 -75 -189 -84 -273 -115 -41
-15 -105 -38 -142 -52 -37 -14 -73 -23 -81 -20 -10 4 -153 230 -194 310 -2 4
11 5 29 2 18 -3 51 -7 73 -10z m1995 9 c0 -3 -8 -17 -18 -32 -11 -15 -52 -83
-92 -150 -40 -68 -79 -126 -86 -129 -16 -6 -251 79 -420 153 -71 31 -144 63
-163 71 -18 8 -32 16 -30 17 2 2 67 7 144 11 248 12 237 11 480 40 22 3 63 8
90 11 28 4 51 7 52 8 5 4 43 4 43 0z m-615 -288 c83 -35 194 -78 247 -97 54
-19 98 -38 98 -43 0 -21 -235 -327 -334 -435 -169 -184 -412 -401 -447 -401
-34 1 -324 262 -449 405 -130 148 -330 412 -330 435 0 4 19 12 42 19 23 7 53
18 67 24 14 6 28 11 31 11 44 11 344 139 518 223 l124 59 141 -69 c78 -38 210
-97 292 -131z m-2806 -255 c175 -58 297 -74 541 -74 l176 1 13 -57 c53 -228
200 -537 317 -666 15 -16 37 -40 48 -53 l21 -23 -25 9 c-271 106 -574 288
-850 511 -104 84 -377 351 -418 408 l-22 30 56 -29 c31 -16 95 -41 143 -57z
m1541 -28 c41 -59 80 -111 85 -117 6 -6 30 -38 55 -70 121 -159 337 -382 495
-512 46 -38 81 -72 78 -77 -9 -15 -273 -142 -273 -131 0 2 -15 -2 -32 -9 -18
-8 -51 -17 -73 -21 -22 -5 -51 -10 -65 -13 -14 -3 -59 -6 -100 -7 -305 -10
-557 167 -728 509 -53 105 -127 311 -138 383 -6 39 -5 42 17 43 13 0 31 2 39
4 8 1 35 6 60 10 109 16 456 98 469 110 17 18 45 -8 111 -102z m1834 82 c136
-37 339 -81 439 -96 l89 -13 -6 -36 c-22 -138 -141 -418 -231 -545 -260 -367
-633 -448 -1060 -232 -44 22 -90 45 -102 51 -13 6 -23 13 -23 17 0 3 39 37 88
76 218 177 496 488 667 746 21 31 40 57 43 57 2 0 45 -11 96 -25z m1524 -22
c-62 -71 -273 -279 -348 -343 -150 -128 -382 -290 -540 -377 -105 -58 -362
-183 -377 -183 -3 0 17 26 44 57 150 176 251 381 336 688 l14 50 174 1 c96 0
195 4 222 7 26 4 68 10 95 13 107 14 329 84 392 124 27 17 22 2 -12 -37z
m-2474 -938 c81 -52 220 -117 319 -149 48 -16 86 -30 85 -31 -5 -4 -105 -14
-213 -22 -175 -13 -489 -7 -625 12 -14 2 -41 4 -60 5 -29 1 -19 6 62 34 119
41 329 143 362 176 13 13 8 15 70 -25z"/>
</g>
</svg>
