<svg width="285" height="343" viewBox="0 0 285 343" fill="none" xmlns="http://www.w3.org/2000/svg"><path d="M275.31 0l-22.23 22.24H22.23v230.947L0 275.426l9.69 9.695 19.665-19.674L142.5 343l120.555-82.685V31.934L285 9.979 275.31 0zM86.64 188.75l-50.73 50.751V35.925h106.305L86.64 91.524v97.226zm97.755-58.45l-35.055 35.07V61.871l31.92 32.219 3.135 3.136V130.3zm-83.79 44.479v-64.437l35.055 35.069v78.409l-35.055-35.07v-13.971zm3.135-80.69l31.92-31.933v64.152L103.74 94.09zm47.025 185.329v41.343l-8.265 5.702-8.265-5.702v-41.058l-33.63-33.644v-37.921l49.02 49.041v-72.136l35.055-35.07v96.086l-33.915 33.359zM190.95 84.111l-48.165-48.186H239.4l-48.45 48.186z" fill="#6597A8"/></svg>