<svg width="285" height="343" viewBox="0 0 285 343" fill="none" xmlns="http://www.w3.org/2000/svg"><path fill-rule="evenodd" clip-rule="evenodd" d="M142.358 342.513L29.326 265.07 9.68 284.715 0 275.035l21.923-21.923V22.208h230.904L275.035 0 285 9.68l-22.208 22.208v228.057l-120.434 82.568zm18.791-283.862l-8.826-8.826-9.681 9.68 18.507 18.507 18.506-18.507-9.68-9.68-8.826 8.826zm-46.409 0l-8.826-8.826-9.68 9.68 18.506 18.507 18.507-18.507-9.681-9.68-8.826 8.826zm0 46.694l-8.826-8.826-9.68 9.68 18.506 18.506 18.507-18.506-9.681-9.68-8.826 8.826zM68.047 58.651l-8.826-8.826-9.68 9.68 18.506 18.507 18.507-18.507-9.68-9.68-8.827 8.826zm0 46.694l-8.826-8.826-9.68 9.68 18.506 18.506 18.507-18.506-9.68-9.68-8.827 8.826zm0 46.693l-8.826-8.826-9.68 9.68 18.506 18.507 18.507-18.507-9.68-9.68-8.827 8.826zm180.794 100.789V45.554L39.006 255.39l103.352 70.609 106.483-73.172zm-94.809 0c-6.264-3.701-10.534-11.958-10.534-21.069h-.285v-19.36c-5.125-1.709-8.826-6.833-8.826-13.097 0-7.403 5.694-13.666 12.812-13.666h22.208l2.847-10.25h13.666l2.847 10.25h22.208c7.118 0 12.812 5.979 12.812 13.666 0 6.264-3.701 11.388-8.826 13.097v19.36c0 9.111-3.986 17.368-10.534 21.069l-8.542 4.84c-5.125 2.848-9.965 6.549-14.236 10.535l-2.562 2.562-1.993-1.993c-4.271-4.27-9.111-7.972-14.521-11.104l-8.541-4.84zm47.263-39.575h-43.846v18.791c0 4.556 1.993 7.972 3.701 9.111l8.541 4.84c3.417 1.993 6.549 4.271 9.681 6.549l.002-.002c3.131-2.277 6.262-4.554 9.678-6.547l8.542-4.84c1.708-1.139 3.701-4.555 3.701-9.111v-18.791z" fill="#425F54"/></svg>