<svg width="286" height="345" viewBox="0 0 286 345" fill="none" xmlns="http://www.w3.org/2000/svg"><path d="M29.347 266.435l113.213 77.607 120.485-82.589V32.764l22.075-22.073-9.734-9.733-22.22 22.217H22.076v231.05L0 276.312l9.734 9.733 19.613-19.61zm136.8-13.794a9.187 9.187 0 0 1-6.451 2.52H125.41a9.19 9.19 0 0 1-6.452-2.52 163.247 163.247 0 0 0-30.24-38.717H196.46a163.233 163.233 0 0 0-30.297 38.717h-.015zm34.013-52.482h-35.035l-34.56-34.628 69.595-69.645V200.16zm-72.518-51.416V84.627l32.025 32.036-32.025 32.08zm18 51.474H84.96v-60.718l60.682 60.718zm6.35 120.73l-9.432 6.407-9.432-6.465-4.579-51.963h28.022l-4.579 52.021zM35.856 36.94H239.4l-69.998 70.048-55.541-55.592V148.9l-42.639-42.633v98.83L35.856 240.46V36.94z" fill="#184166"/></svg>