<svg width="288" height="264" viewBox="0 0 288 264" fill="none" xmlns="http://www.w3.org/2000/svg"><path d="M15.08 250.206c0 .933.426 1.779 1.091 2.161l.89.513a7.48 7.48 0 0 1 1.506 1.148l.199.195.262-.249c.438-.423.926-.79 1.455-1.094l.863-.505c.666-.381 1.092-1.228 1.092-2.16v-1.998a1.408 1.408 0 0 0 .922-1.348 1.365 1.365 0 0 0-1.317-1.412H19.74l-.288-1.059h-1.393l-.288 1.059h-2.304a1.362 1.362 0 0 0-1.316 1.412 1.4 1.4 0 0 0 .92 1.348l.01 1.989zm1.417-1.925h4.527v1.925a1.147 1.147 0 0 1-.383.938l-.864.505a8.836 8.836 0 0 0-1.008.675 8.866 8.866 0 0 0-1-.663l-.89-.511a1.13 1.13 0 0 1-.383-.938v-1.931z" fill="#436055"/><path d="M3.303 253.626l11.65 7.958 12.407-8.474v-23.453l2.304-2.278-1.005-.999-2.287 2.278H2.546v23.726l-2.258 2.25 1.002.998 2.013-2.006zm12.687-22.121l.916.93.918-.916 1.003 1.002-1.921 1.911-1.93-1.925 1.014-1.002zm-4.781 0l.916.93.916-.916 1.002 1.002-1.918 1.911-1.921-1.911 1.005-1.016zm0 4.798l.916.912.916-.912 1.002 1.01-1.918 1.911-1.921-1.911 1.005-1.01zm-4.81-4.798l.92.93.915-.916 1.002 1.002-1.918 1.911-1.92-1.911 1.001-1.016zm0 4.798l.92.912.915-.912 1.002 1.01-1.918 1.911-1.92-1.911 1.001-1.01zm0 4.795l.92.915.915-.915 1.002.999-1.918 1.914-1.92-1.914 1.001-.999zm19.544-10.026v21.292l-10.99 7.507-10.633-7.26 21.623-21.539z" fill="#436055"/><path d="M54.924 253.621l11.656 7.963 12.407-8.474v-23.467l2.275-2.264-1.002-.999-2.29 2.278H54.176v23.712l-2.276 2.264 1.003.998 2.021-2.011zm14.086-1.415a.951.951 0 0 1-.662.258h-3.534a.947.947 0 0 1-.662-.258 16.852 16.852 0 0 0-3.12-3.974h11.095a16.837 16.837 0 0 0-3.117 3.974zm3.5-5.386h-3.606l-3.566-3.553 7.172-7.145v10.698zm-7.465-5.283v-6.571l3.297 3.285-3.297 3.286zm1.854 5.283h-6.246v-6.224l6.246 6.224zm.651 12.388l-.97.663-.97-.663-.47-5.332h2.88l-.47 5.332zM55.584 230.07h20.96l-7.2 7.174-5.72-5.699v10.015l-4.388-4.376v10.144l-3.652 3.627V230.07z" fill="#184166"/><path d="M178.67 240.3h-4.608v1.412h4.608V240.3zM178.67 243.546h-7.868v1.412h7.868v-1.412zM178.67 246.938H167.4v1.411h11.27v-1.411zM178.667 250.326h-14.671v1.412h14.671v-1.412z" fill="#AF5459"/><path d="M183.484 226.38l-2.304 2.278H157.4v23.712l-2.275 2.264 1.002.998 2.016-2.008 11.658 7.963 12.405-8.474v-23.47l2.275-2.264-.997-.999zm-23.25 5.105h7.488v9.521l-3.744-2.221-3.744 2.221v-9.521zm20.56 20.879l-10.987 7.507-10.638-7.266 21.625-21.548v21.307z" fill="#AF5459"/><path d="M264.637 236.495l1.599-.835 1.598.835-.305-1.773 1.293-1.254-1.786-.261-.8-1.613-.801 1.613-1.786.261 1.294 1.254-.306 1.773zM271.304 236.495l1.599-.835 1.601.835-.305-1.773 1.293-1.254-1.789-.261-.797-1.613-.801 1.613-1.789.261 1.294 1.254-.306 1.773zM264.637 243.15l1.599-.838 1.598.838-.305-1.774 1.293-1.257-1.786-.258-.8-1.615-.801 1.615-1.786.258 1.294 1.257-.306 1.774z" fill="#B86928"/><path d="M286.71 226.38l-2.289 2.278H260.64v23.712l-2.275 2.264 1.005.998 2.016-2.008 11.638 7.96 12.408-8.474v-23.467l2.272-2.264-.994-.999zm-5.742 26.661l-3.048-3.033-3.041 3.033-.991-.998 4.032-4.032 4.032 4.032-.984.998zm0-3.532l-3.048-3.033-3.038 3.033-.994-1.005 4.032-4.017 4.032 4.017-.984 1.005zm0-3.533l-3.048-3.033-3.041 3.033-.991-.998 4.032-4.032 4.032 4.032-.984.998zm-18.925 4.979v-20.882h20.961l-20.961 20.882z" fill="#B86928"/><path d="M236.1 227.379l-1.002-.999-2.29 2.278h-23.795v23.712l-2.275 2.264 1.003.998 2.016-2.008 11.658 7.963 12.404-8.474v-23.47l2.281-2.264zm-6.961 15.782h-3.254v-4.224h3.254v4.224zm-.789 1.412l-2.16 2.961-3.102 1.005 2.483-3.966h2.779zm-3.882-1.412h-6.097v-4.224h6.097v4.224zm-.576 1.412l-2.48 3.963-2.48-3.963h4.96zm4.521-7.062h-2.851l-2.56-4.092 3.168 1.03 2.243 3.062zm-4.521 0h-4.951l2.48-3.963 2.471 3.963zm-6.624 0h-2.852l2.232-3.062 3.168-1.03-2.548 4.092zm-.314 1.412v4.238h-3.258v-4.224l3.258-.014zm.314 5.65l2.476 3.98-3.101-1.004-2.158-2.962 2.783-.014zm-6.838-14.517h20.961l-2.831 2.824 3.421 4.72v6.841l-4.032 5.533-5.817 1.885v1.346h3.545v1.414h-8.51v-1.414h3.542v-2.373l6.362-2.061 3.494-4.789v-5.937l-3.019-4.141-.472-.649-5.645-1.827-5.648 1.827-3.49 4.787v5.917l2.174 2.981-4.032 4.018-.003-20.902z" fill="#989A9E"/><path d="M131.872 226.38l-2.29 2.278h-23.794v23.712l-2.275 2.264 1.002.998 2.016-2.008 11.655 7.963 12.407-8.474v-23.47l2.276-2.264-.997-.999zm-19.426 19.352l-5.241 5.223V230.07h10.944l-5.711 5.691.008 9.971zm10.06-5.983l-3.608 3.59v-10.6l3.291 3.28.312.313.005 3.417zm-8.64 4.572V237.7l3.612 3.599v8.035l-3.617-3.605.005-1.408zm.323-8.296l3.295-3.286v6.583l-3.295-3.297zm4.856 19.025v4.241l-.864.574-.85-.574v-4.21l-3.476-3.466v-3.885l5.037 5.021v-7.406l3.609-3.596v9.852l-3.456 3.449zm4.152-20.033l-4.968-4.95h9.931l-4.963 4.95z" fill="#6696A6"/><path d="M287.712 197.598H.288v.287h287.424v-.287z" fill="#989A9E"/><path d="M144.001 0c-31.392 0-56.852 25.361-56.852 56.645 0 31.284 25.46 56.643 56.852 56.643 31.392 0 56.851-25.359 56.851-56.643S175.393 0 144.001 0zm14.616 108.688a11.229 11.229 0 0 1-3.456.536c-3.019 0-6.215-1.093-9.444-3.082 4.519-3.354 9.012-8.258 13.139-14.365a61.485 61.485 0 0 0 10.293 2.244c-1.901 7.909-5.547 13.051-10.532 14.667zm-29.232 0c-4.986-1.616-8.64-6.758-10.521-14.667a61.506 61.506 0 0 0 10.293-2.244c4.127 6.107 8.62 11.011 13.139 14.365-3.229 1.989-6.426 3.082-9.444 3.082a11.234 11.234 0 0 1-3.467-.536zm-.916-103.626c4.472 0 9.328 2.379 14.112 6.56a63.02 63.02 0 0 0-7.2 8.322c-7.056-2.66-13.709-4.107-19.466-4.259 2.045-5.323 5.146-8.798 9.078-10.086a11.246 11.246 0 0 1 3.456-.537h.02zm31.066 0a11.24 11.24 0 0 1 3.456.537c3.94 1.276 7.042 4.763 9.104 10.072-5.76.152-12.41 1.6-19.466 4.258a63.044 63.044 0 0 0-7.188-8.307c4.778-4.178 9.636-6.56 14.112-6.56h-.018zm15.371 31.697a94.44 94.44 0 0 0-14.02-3.133 94.413 94.413 0 0 0-7.093-12.067c6.805-2.52 13.297-3.908 18.979-3.96a44.807 44.807 0 0 1 1.676 7.825c.464 3.76.618 7.55.458 11.335zm-2.393 43.015a92.501 92.501 0 0 0-1.207-13.579 95.418 95.418 0 0 0 9.415-10.413 67.398 67.398 0 0 1 5.472 8.321 43.857 43.857 0 0 1 3.482 7.998 46.12 46.12 0 0 1-6.679 3.805 69.35 69.35 0 0 1-10.483 3.868zm-67.522-3.862a46.092 46.092 0 0 1-6.679-3.806 43.632 43.632 0 0 1 3.485-7.997 66.834 66.834 0 0 1 5.472-8.322 95.308 95.308 0 0 0 9.415 10.414 92.279 92.279 0 0 0-1.195 13.573 69.32 69.32 0 0 1-10.498-3.862zm8.551-50.488a44.807 44.807 0 0 1 1.676-7.825c5.682.049 12.174 1.435 18.979 3.96a94.586 94.586 0 0 0-7.082 12.067 94.497 94.497 0 0 0-14.02 3.133 68.803 68.803 0 0 1 .447-11.335zm30.459 58.08a114.546 114.546 0 0 1-13.862-8.608 115.106 115.106 0 0 1-11.361-9.378 115.027 115.027 0 0 1 9.604-29.993l.153-.115a116.974 116.974 0 0 1 30.937 0l.153.115a115.027 115.027 0 0 1 9.604 29.993 115.106 115.106 0 0 1-11.361 9.378 114.633 114.633 0 0 1-13.867 8.608zm-26.528-21.616a111.1 111.1 0 0 1-3.249-14.124 109.826 109.826 0 0 1 10.838-9.728c-1.53 3.47-2.935 7.12-4.176 10.927a116.245 116.245 0 0 0-3.413 12.91v.015zm-1.895.488a88.8 88.8 0 0 1-7.068-8.161 90.107 90.107 0 0 1 4.032-4.675c.763 4.329 1.776 8.61 3.036 12.821v.015zm54.95-.488a115.594 115.594 0 0 0-3.412-12.913 117.012 117.012 0 0 0-4.176-10.927c3.824 3 7.445 6.25 10.837 9.727a110.537 110.537 0 0 1-3.249 14.099v.014zm4.931-12.34a87.046 87.046 0 0 1 4.032 4.675 89.328 89.328 0 0 1-7.071 8.161 113.411 113.411 0 0 0 3.039-12.858v.023zm-19.334-16.514c-8.06-.83-16.186-.83-24.246 0a112.036 112.036 0 0 1 12.122-7.174 112.356 112.356 0 0 1 12.124 7.174zm-9.967-8.238a95.872 95.872 0 0 1 5.76-2.525 89.902 89.902 0 0 1 5.814 9.51 114.233 114.233 0 0 0-11.574-6.985zm-15.895 6.984a90.21 90.21 0 0 1 5.815-9.51c1.906.766 3.826 1.608 5.76 2.526a114.137 114.137 0 0 0-11.575 6.984zm-5.82 4.253a112.606 112.606 0 0 0-10.576 9.306 91.165 91.165 0 0 1-.662-6.6 87.757 87.757 0 0 1 11.238-2.706zm-12.292 11.07a96.105 96.105 0 0 0-4.836 5.485 65.483 65.483 0 0 1-4.268-6.692 50.72 50.72 0 0 1-1.204-2.339 52.657 52.657 0 0 1 3.148-1.615 64.524 64.524 0 0 1 6.304-2.551c.162 2.505.45 5.087.856 7.713zm-6.097 7.072c-4.447 5.739-7.65 11.45-9.386 16.7-4.608-3.647-7.06-7.747-7.06-11.949 0-5.165 3.705-10.17 10.542-14.379a63.85 63.85 0 0 0 5.904 9.628zm12.058 15.782a111.84 111.84 0 0 0 5.083 11.648 98.908 98.908 0 0 1-5.76-1.292c.015-3.466.241-6.928.677-10.367v.011zm1.806-.76a117.643 117.643 0 0 0 9.069 7.265 117.034 117.034 0 0 0 10.815 6.96c-4.749-.158-9.483-.62-14.173-1.384a110.393 110.393 0 0 1-5.711-12.853v.012zm20.321 16.19a87.496 87.496 0 0 1-10.255 4.103 95.122 95.122 0 0 1-3.194-5.303c4.455.66 8.947 1.057 13.449 1.188v.012zm7.961-1.966c3.73-2.12 7.34-4.443 10.814-6.959a117.26 117.26 0 0 0 9.069-7.265 110.243 110.243 0 0 1-5.711 12.841c-4.69.76-9.424 1.218-14.172 1.372v.011zm13.012.766a91.618 91.618 0 0 1-3.194 5.303 87.06 87.06 0 0 1-10.256-4.106c4.503-.137 8.994-.54 13.45-1.208v.011zm8.677-14.23c.438 3.435.667 6.894.685 10.356-1.87.486-3.79.917-5.76 1.292a111.792 111.792 0 0 0 5.075-11.66v.012zm12.061-15.782a64.149 64.149 0 0 0 5.902-9.628c6.837 4.21 10.54 9.209 10.54 14.38 0 4.21-2.459 8.301-7.059 11.948-1.736-5.25-4.939-10.959-9.383-16.7zm3.004-8.28a65.312 65.312 0 0 1-4.268 6.693 92.99 92.99 0 0 0-4.835-5.484c.397-2.634.682-5.211.864-7.713a64.524 64.524 0 0 1 6.304 2.55 52.657 52.657 0 0 1 3.148 1.616 60.5 60.5 0 0 1-1.213 2.339zm-10.82-.556a112.499 112.499 0 0 0-10.575-9.312c3.8.662 7.552 1.572 11.232 2.727a89.393 89.393 0 0 1-.657 6.585zM150.76 20.661a97.189 97.189 0 0 0-6.759 3.036 98.264 98.264 0 0 0-6.76-3.036 60.794 60.794 0 0 1 6.76-7.748 60.612 60.612 0 0 1 6.759 7.748zm-36.939-5.002a25.88 25.88 0 0 0-7.462 1.231 55.154 55.154 0 0 1 11.174-8.144 25.063 25.063 0 0 0-3.712 6.913zm-12.444 6.58c3.029-3.326 7.761-4.387 11.808-4.591-1.648 5.49-2.327 12.244-1.985 19.745a61.942 61.942 0 0 0-10.157 4.408c-3.338-7.647-3.552-14.081-.548-18.417.277-.396.571-.772.882-1.145zm-2.042 20.535c-4.695 2.87-8.168 6.207-10.054 9.837a54.186 54.186 0 0 1 7.2-23.304c-.288 3.994.697 8.571 2.845 13.467h.009zM96.077 72.87c-.864 3.288-1.123 6.367-.697 9.122a54.231 54.231 0 0 1-5.353-15.444c1.43 2.247 3.476 4.37 6.05 6.322zm3.284 13.989c-2.333-3.2-2.855-7.587-1.607-12.787 4.648 3.136 10.696 5.776 17.723 7.72a61.41 61.41 0 0 0 1.014 10.505c-.974.071-1.933.12-2.863.12-4.651 0-10.909-.964-14.267-5.558zm18.555 2.009a63.516 63.516 0 0 1-.481-6.552c2.212.574 4.513 1.05 6.889 1.467 1.19 2.21 2.431 4.304 3.707 6.313a58.192 58.192 0 0 1-9.576 2.017 58.64 58.64 0 0 1-.53-3.251l-.009.006zm13.171 2.295a93.447 93.447 0 0 0 12.905-5.452 93.324 93.324 0 0 0 12.905 5.452c-4.066 5.943-8.487 10.707-12.896 13.863-4.41-3.156-8.83-7.92-12.906-13.877l-.008.014zm28.866-1.067a94.537 94.537 0 0 0 3.707-6.313 95.405 95.405 0 0 0 6.891-1.467 64.084 64.084 0 0 1-.483 6.552 50.003 50.003 0 0 1-.53 3.257 58.169 58.169 0 0 1-9.576-2.044l-.009.015zm12.56-8.313c7.027-1.943 13.075-4.592 17.723-7.72 1.247 5.2.726 9.588-1.607 12.787-3.349 4.592-9.608 5.559-14.267 5.559-.931 0-1.89-.05-2.863-.12a61.613 61.613 0 0 0 1.014-10.506zm19.411-8.922c2.572-1.951 4.608-4.075 6.048-6.313a54.153 54.153 0 0 1-5.354 15.444c.429-2.755.178-5.834-.691-9.122l-.003-.009zm-3.249-30.087c2.149-4.879 3.148-9.47 2.84-13.467a54.189 54.189 0 0 1 7.2 23.304c-1.872-3.63-5.345-6.965-10.04-9.837zm-1.699-.987a61.964 61.964 0 0 0-10.143-4.408c.345-7.501-.337-14.256-1.985-19.745 4.032.218 8.77 1.28 11.808 4.59.303.374.596.75.89 1.131 2.981 4.35 2.768 10.793-.57 18.432zM174.18 15.659a25.022 25.022 0 0 0-3.709-6.913 55.188 55.188 0 0 1 11.171 8.144 25.78 25.78 0 0 0-7.462-1.23zM156.589 3.418c-4.089.797-8.378 3.182-12.588 6.912-4.211-3.704-8.499-6.1-12.586-6.887a54.653 54.653 0 0 1 25.174 0v-.025zm-54.72 88.222c3.102 1.833 7.119 2.726 11.782 2.726 1.054 0 2.154-.06 3.272-.152 1.336 5.693 3.597 10.253 6.725 13.2a55.14 55.14 0 0 1-21.793-15.774h.014zm34.356 19.14c2.543-.574 5.158-1.737 7.776-3.444 2.623 1.722 5.238 2.89 7.776 3.444a54.388 54.388 0 0 1-15.552 0zm28.152-3.361c3.124-2.952 5.385-7.512 6.722-13.2 1.117.092 2.217.152 3.271.152 4.663 0 8.681-.895 11.782-2.726a55.118 55.118 0 0 1-21.781 15.774h.006zM49.06 144.405l-5.134 5.868h-1.982v.721h1.982l.029 15.441-2.745 2.304h10.624l-2.747-2.304-.018-15.441h3.551v-.721h-3.55l-.01-5.868zM87.69 156.716c0-4.609-2.963-6.555-8.202-6.555-1.555 0-3.758.362-7.047 1.407v5.397l6.54-6.086h.542c1.987 0 3.145 1.331 3.145 2.953v5.004h-4.735c-4.012 0-6.722 1.722-6.722 5.185 0 2.953 2.24 5.08 5.711 5.08 3.612 0 5.167-2.089 5.674-4.035h.106v3.564h7.338l-2.35-2.296v-9.618zm-5.034 5.653c0 2.737-1.336 4.249-3.252 4.249-1.627 0-2.675-1.147-2.675-3.242 0-1.619.614-3.444 3.323-3.817l2.592-.178.012 2.988zM34.623 154.988l-4.337-1.435c-2.963-1.044-4.19-2.16-4.19-4.321 0-2.27 1.44-4.537 4.3-4.537 1.12 0 2.275.539 2.819 1.331l5.962 7.174v-8.801l-2.529 1.045a15.567 15.567 0 0 0-6.434-1.392c-4.841 0-8.819 2.376-8.819 7.237 0 3.277 1.844 5.762 5.893 7.131l4.516 1.475c2.782.901 3.977 2.233 3.977 4.322 0 2.556-1.843 4.249-4.663 4.249a4.977 4.977 0 0 1-3.614-1.584l-5.89-6.709v8.557l2.578-1.248a15.013 15.013 0 0 0 6.973 1.621c5.184 0 9.325-2.295 9.325-7.311-.012-3.203-1.71-5.401-5.867-6.804zM61.402 155.637v-5.008l-7.88 1.352 2.748.952v13.396l-2.748 2.295h12.07l-4.19-2.295v-7.309c0-3.492 1.553-6.264 3.54-6.264h.434l4.482 4.209v-5.397s-1.216-1.226-2.765-1.226c-3.396 0-5.15 2.27-5.69 5.295zM109.581 150.629l-7.876 1.352 2.744.952v8.248c0 2.843-1.44 5.185-4.012 5.185-2.059 0-3.107-1.369-3.107-3.997v-11.74l-7.877 1.352 2.745.952v9.545c0 4.499 2.278 6.625 5.855 6.625 3.686 0 5.639-2.269 6.396-5.581v5.111h7.871l-2.747-2.296.008-15.708zM124.991 158.191l-3.326-1.117c-2.131-.754-2.998-1.584-2.998-3.239 0-1.656 1.011-2.988 3.168-2.988.864 0 1.728.325 2.131.898l5.276 5.582v-6.913l-2.456.72a15.107 15.107 0 0 0-5.133-.973c-3.577 0-7.407 1.478-7.407 5.51 0 2.953 1.987 4.502 5.023 5.547l3.361 1.116c1.44.502 2.747 1.403 2.747 3.274 0 1.587-.941 2.738-3.361 2.738a3.111 3.111 0 0 1-2.422-1.079l-5.241-5.69v7.274l2.387-.829a13.602 13.602 0 0 0 5.527 1.082c3.47 0 7.698-1.082 7.698-5.438.015-3.025-2.094-4.431-4.974-5.475zM142.663 158.191l-3.323-1.117c-2.131-.754-2.998-1.584-2.998-3.239 0-1.656 1.011-2.988 3.168-2.988.864 0 1.728.325 2.131.898l5.276 5.582v-6.913l-2.457.72a15.097 15.097 0 0 0-5.132-.973c-3.577 0-7.407 1.478-7.407 5.51 0 2.953 1.987 4.502 5.023 5.547l3.361 1.116c1.44.502 2.744 1.403 2.744 3.274 0 1.587-.939 2.738-3.358 2.738a3.111 3.111 0 0 1-2.422-1.079l-5.242-5.69v7.274l2.385-.829a13.6 13.6 0 0 0 5.556 1.081c3.47 0 7.698-1.081 7.698-5.437-.015-3.025-2.111-4.431-5.003-5.475zM190.227 144.517l-7.851 1.363 2.739.944.034 19.464-2.733 2.302 10.593-.02-2.742-2.293-.04-21.76zM266.605 168.555l-2.745-2.292-.037-21.76-7.854 1.36 2.739.947.034 19.461-2.733 2.304 10.596-.02zM202.668 150.179c-5.584 0-9.668 3.897-9.659 9.469.008 5.573 4.107 9.438 9.694 9.427 5.587-.012 9.633-3.894 9.622-9.47-.012-5.575-4.069-9.435-9.657-9.426zm.032 17.771c-2.785 0-4.404-2.356-4.415-8.322 0-6.063 1.601-8.322 4.386-8.322s4.407 2.253 4.415 8.322c.012 5.946-1.601 8.316-4.386 8.322zM253.604 156.695c0-4.591-2.963-6.525-8.179-6.519h-.104c-1.543 0-3.718.381-6.935 1.409v5.386l6.512-6.081h.538c1.982 0 3.14 1.323 3.142 2.939v4.99h-4.72c-4 0-6.702 1.722-6.693 5.182 0 2.945 2.241 5.059 5.702 5.054 3.603 0 5.15-2.092 5.651-4.018h.107v3.556h7.318l-2.348-2.296.009-9.602zm-8.228 9.889c-1.624 0-2.67-1.148-2.673-3.225 0-1.616.605-3.444 3.307-3.814l2.592-.184v2.982c.008 2.729-1.322 4.238-3.226 4.241z" fill="#131617"/><path d="M182.768 156.429h-11.232l3.764 2.295v7.424c-.841 1.056-2.192 1.819-4.093 1.819-5.299 0-9.792-5.791-9.792-12.6 0-6.663 4.24-10.597 9.216-10.597 2.157 0 3.217.947 4.202 2.112l4.793 7.214v-9.72l-3.168 1.309a13.708 13.708 0 0 0-6.912-1.928c-7.823 0-14 5.317-14 12.964 0 7.102 5.921 12.382 13.268 12.382 5.556 0 9.832-1.968 11.405-3.351v-7.028l2.549-2.295zM227.385 149.912c-3.727 0-6.417 2.295-7.186 5.598l-.02-10.993-7.854 1.363 2.742.944.026 19.462-2.725 2.295h7.831v-2.402c1.76 1.92 3.793 2.87 6.492 2.87 5.518 0 8.928-3.676 8.928-9.576s-3.41-9.561-8.234-9.561zm-2.267 17.989c-2.814 0-4.824-2.511-4.824-8.339v-.146c0-4.261 2.016-7.065 4.824-7.065 2.923 0 4.971 2.987 4.971 7.139 0 5.754-2.048 8.411-4.971 8.411z" fill="#131617"/></svg>