<svg width="280" height="59" viewBox="0 0 280 59" fill="none" xmlns="http://www.w3.org/2000/svg"><path d="M29.461 0C13.19 0 0 13.205 0 29.497 0 45.79 13.19 58.995 29.461 58.995c16.273 0 29.462-13.205 29.462-29.497C58.923 13.204 45.733 0 29.46 0zm7.576 56.604a5.745 5.745 0 0 1-1.795.279c-1.567 0-3.22-.569-4.893-1.605 2.342-1.746 4.67-4.3 6.81-7.478 1.866.569 3.656.96 5.334 1.168-.983 4.117-2.87 6.793-5.456 7.636zm-15.146 0c-2.581-.843-4.473-3.519-5.451-7.636 1.678-.208 3.468-.6 5.334-1.168 2.14 3.178 4.467 5.737 6.81 7.479-1.673 1.035-3.331 1.604-4.893 1.604a5.857 5.857 0 0 1-1.8-.28zm-.477-53.969c2.317 0 4.832 1.239 7.312 3.417-1.278 1.223-2.53 2.675-3.737 4.325-3.656-1.386-7.104-2.137-10.091-2.218 1.07-2.762 2.677-4.58 4.716-5.245a5.906 5.906 0 0 1 1.8-.279zm16.1 0a5.85 5.85 0 0 1 1.795.28c2.044.664 3.65 2.482 4.716 5.244-2.982.081-6.43.832-10.091 2.218-1.207-1.65-2.46-3.102-3.737-4.325 2.484-2.178 5-3.417 7.317-3.417zm7.966 16.51a48.424 48.424 0 0 0-7.266-1.63 49.246 49.246 0 0 0-3.672-6.285c3.53-1.31 6.892-2.036 9.838-2.06a23.65 23.65 0 0 1 .867 4.076c.238 1.843.314 3.823.233 5.9zm-1.237 22.4c-.026-2.229-.233-4.605-.624-7.072 1.846-1.782 3.484-3.605 4.878-5.422a35.214 35.214 0 0 1 2.84 4.335c.801 1.463 1.4 2.859 1.805 4.164-.999.7-2.155 1.365-3.463 1.98-1.653.787-3.479 1.457-5.436 2.015zm-34.999-2.01a23.95 23.95 0 0 1-3.463-1.98c.405-1.31 1.004-2.701 1.805-4.163a35.206 35.206 0 0 1 2.84-4.336 49.902 49.902 0 0 0 4.878 5.422c-.396 2.467-.604 4.843-.624 7.072-1.952-.563-3.778-1.233-5.436-2.015zm4.432-26.294c.193-1.508.487-2.864.867-4.077 2.946.025 6.308.751 9.838 2.061-1.304 1.879-2.536 3.986-3.672 6.286-2.596.386-5.035.939-7.266 1.63-.076-2.072 0-4.052.233-5.9zM29.461 43.48a59.025 59.025 0 0 1-7.185-4.488 58.756 58.756 0 0 1-5.887-4.885 59.07 59.07 0 0 1 2.059-8.306 58.944 58.944 0 0 1 2.92-7.316c.026-.02.051-.04.082-.06 2.57-.35 5.263-.534 8.017-.534 2.753 0 5.446.183 8.016.534.026.02.051.04.082.06a59.247 59.247 0 0 1 2.92 7.316 59.071 59.071 0 0 1 2.06 8.306c-1.801 1.701-3.774 3.341-5.888 4.885a59.127 59.127 0 0 1-7.196 4.488c.006 0 .006 0 0 0zM15.714 32.224a58.64 58.64 0 0 1-1.683-7.357 56.833 56.833 0 0 1 5.618-5.067 61.266 61.266 0 0 0-3.935 12.423zm-.983.254a46.372 46.372 0 0 1-3.661-4.25 47.648 47.648 0 0 1 2.089-2.437c.38 2.173.902 4.417 1.572 6.687zm28.482-.254A61.242 61.242 0 0 0 39.28 19.8a57.404 57.404 0 0 1 5.618 5.067 58.623 58.623 0 0 1-1.684 7.357zm2.556-6.433c.74.802 1.435 1.62 2.09 2.437a46.372 46.372 0 0 1-3.662 4.25 60.693 60.693 0 0 0 1.572-6.687zm-10.02-8.585a61.465 61.465 0 0 0-6.283-.325 60 60 0 0 0-6.282.325 57.514 57.514 0 0 1 6.282-3.732 57.654 57.654 0 0 1 6.283 3.732zm-5.167-4.29A50.112 50.112 0 0 1 33.57 11.6a46.147 46.147 0 0 1 3.012 4.955 57.34 57.34 0 0 0-5.999-3.64zm-8.24 3.635a47.49 47.49 0 0 1 3.012-4.955c.989.396 1.983.832 2.987 1.315-1.988 1.05-4.001 2.264-5.999 3.64zm-3.012 2.214a58.667 58.667 0 0 0-5.482 4.848 48.542 48.542 0 0 1-.344-3.432 46.162 46.162 0 0 1 5.826-1.416zm-6.374 5.767a47.178 47.178 0 0 0-2.505 2.853 34.553 34.553 0 0 1-2.21-3.482 23.135 23.135 0 0 1-.625-1.219c.518-.29 1.055-.569 1.633-.843 1.024-.487 2.12-.929 3.266-1.33a47.95 47.95 0 0 0 .44 4.021zm-3.16 3.681c-2.301 2.99-3.965 5.96-4.862 8.697-2.383-1.899-3.661-4.031-3.661-6.224 0-2.691 1.922-5.296 5.466-7.49.791 1.636 1.82 3.321 3.058 5.017zm6.253 8.215a59.834 59.834 0 0 0 2.632 6.067 47.812 47.812 0 0 1-2.992-.676c.005-1.73.127-3.538.36-5.391zm.933-.396a60.49 60.49 0 0 0 4.7 3.782 61.203 61.203 0 0 0 5.604 3.625 57.463 57.463 0 0 1-7.343-.721 57.669 57.669 0 0 1-2.96-6.686zm10.532 8.427a44.88 44.88 0 0 1-5.314 2.138 46.273 46.273 0 0 1-1.653-2.762 57.15 57.15 0 0 0 6.967.624zm4.128-1.02a61.203 61.203 0 0 0 5.603-3.625 60.469 60.469 0 0 0 4.7-3.782 57.668 57.668 0 0 1-2.96 6.686c-2.348.39-4.813.63-7.343.72zm6.739.396a46.273 46.273 0 0 1-1.653 2.762 44.88 44.88 0 0 1-5.314-2.138 57.15 57.15 0 0 0 6.967-.624zm4.498-7.407c.233 1.853.35 3.66.355 5.391-.969.254-1.968.478-2.992.676a57.659 57.659 0 0 0 2.637-6.067zm6.252-8.215c1.237-1.696 2.262-3.381 3.058-5.016 3.544 2.193 5.466 4.798 5.466 7.489 0 2.193-1.278 4.325-3.661 6.224-.898-2.731-2.56-5.707-4.863-8.697zm1.557-4.31a33.96 33.96 0 0 1-2.211 3.482 47.14 47.14 0 0 0-2.505-2.853c.208-1.37.355-2.716.441-4.016a32.95 32.95 0 0 1 3.266 1.33c.573.27 1.115.554 1.633.843-.193.396-.396.802-.624 1.214zm-5.608-.29a58.667 58.667 0 0 0-5.482-4.848c2.049.365 4 .837 5.826 1.421a48.41 48.41 0 0 1-.344 3.427zM32.965 10.758a50.085 50.085 0 0 0-3.504 1.584 50.064 50.064 0 0 0-3.503-1.584c1.135-1.533 2.312-2.889 3.503-4.026 1.197 1.142 2.373 2.493 3.504 4.026zM13.823 8.154c-1.425.045-2.723.254-3.869.64a28.55 28.55 0 0 1 5.79-4.24c-.77.99-1.414 2.198-1.921 3.6zM7.368 11.58c1.572-1.732 4.021-2.285 6.115-2.397-.857 2.859-1.207 6.377-1.03 10.281-1.946.66-3.716 1.432-5.263 2.295-1.729-3.985-1.84-7.331-.284-9.59.153-.198.305-.396.462-.59zm-1.06 10.697c-2.434 1.498-4.234 3.234-5.213 5.123a28.273 28.273 0 0 1 3.737-12.134c-.152 2.076.366 4.467 1.476 7.01zM4.625 37.95c-.452 1.71-.584 3.315-.36 4.752A28.348 28.348 0 0 1 1.49 34.66c.74 1.167 1.8 2.274 3.134 3.29zm1.708 7.285c-1.206-1.665-1.48-3.95-.831-6.66 2.408 1.634 5.542 3.005 9.188 4.02.03 1.965.208 3.798.527 5.473a21.28 21.28 0 0 1-1.485.061c-2.419 0-5.664-.503-7.399-2.894zm9.615 1.041a33.217 33.217 0 0 1-.249-3.412c1.146.29 2.338.543 3.57.762a48.165 48.165 0 0 0 1.922 3.285c-1.724.512-3.392.873-4.97 1.06a30.48 30.48 0 0 1-.273-1.695zm6.825 1.193a48.45 48.45 0 0 0 6.688-2.843 48.45 48.45 0 0 0 6.689 2.843c-2.115 3.102-4.402 5.59-6.689 7.225-2.281-1.635-4.573-4.123-6.688-7.225zm14.964-.558a49.099 49.099 0 0 0 1.922-3.285 50.753 50.753 0 0 0 3.57-.762 34.832 34.832 0 0 1-.249 3.412 26.368 26.368 0 0 1-.274 1.696c-1.582-.188-3.25-.549-4.969-1.061zm6.506-4.316c3.64-1.01 6.78-2.386 9.188-4.02.644 2.705.375 4.99-.831 6.66-1.735 2.392-4.98 2.894-7.394 2.894-.482 0-.978-.025-1.486-.06.315-1.676.492-3.509.523-5.474zm10.06-4.645c1.334-1.016 2.394-2.123 3.134-3.29a28.294 28.294 0 0 1-2.774 8.042c.218-1.437.092-3.041-.36-4.752zm-1.688-15.673c1.115-2.544 1.633-4.935 1.47-7.011A28.273 28.273 0 0 1 57.822 27.4c-.973-1.894-2.773-3.63-5.207-5.123zm-.878-.518c-1.546-.863-3.316-1.635-5.263-2.295.178-3.909-.172-7.422-1.03-10.28 2.095.111 4.544.664 6.116 2.396.157.193.31.39.461.589 1.557 2.259 1.446 5.61-.284 9.59zM45.105 8.154c-.507-1.402-1.151-2.61-1.922-3.6a28.55 28.55 0 0 1 5.79 4.24c-1.145-.386-2.443-.595-3.868-.64zm-9.117-6.372c-2.12.416-4.341 1.665-6.521 3.595-2.181-1.93-4.407-3.179-6.527-3.595a28.199 28.199 0 0 1 6.521-.767c2.242 0 4.432.27 6.526.767zM7.62 47.724c1.608.954 3.692 1.422 6.106 1.422.547 0 1.115-.03 1.693-.082.695 2.965 1.866 5.341 3.484 6.875a28.521 28.521 0 0 1-11.283-8.215zm17.81 9.966c1.317-.294 2.671-.904 4.03-1.797 1.36.893 2.713 1.503 4.032 1.797-1.319.188-2.663.29-4.032.29-1.369 0-2.712-.097-4.03-.29zm14.588-1.746c1.617-1.539 2.794-3.91 3.483-6.875a21.81 21.81 0 0 0 1.694.082c2.414 0 4.498-.468 6.105-1.422a28.547 28.547 0 0 1-11.282 8.215zM94.398 16.86l-4.38 5.032h-1.69v.62h1.694l.02 13.24-2.342 1.975h9.066l-2.342-1.975-.016-13.24h3.028v-.62h-3.028l-.01-5.031zM127.358 27.416c0-3.95-2.53-5.62-6.997-5.62-1.324 0-3.205.31-6.014 1.203v4.63l5.582-5.22h.462c1.694 0 2.682 1.143 2.682 2.534v4.29h-4.041c-3.423 0-5.735 1.483-5.735 4.448 0 2.533 1.912 4.35 4.873 4.35 3.083 0 4.412-1.791 4.843-3.456h.091v3.056h6.257l-2.003-1.975v-8.24zm-4.285 4.848c0 2.346-1.141 3.646-2.773 3.646-1.39 0-2.282-.99-2.282-2.777 0-1.392.522-2.965 2.834-3.275l2.221-.152v2.558zM82.081 25.933L78.38 24.7c-2.53-.894-3.575-1.853-3.575-3.707 0-1.944 1.233-3.888 3.672-3.888.958 0 1.942.462 2.403 1.142l5.086 6.143v-7.53l-2.16.894a13.182 13.182 0 0 0-5.487-1.203c-4.132 0-7.525 2.036-7.525 6.204 0 2.808 1.572 4.94 5.026 6.113l3.853 1.264c2.374.772 3.393 1.914 3.393 3.706 0 2.194-1.572 3.646-3.976 3.646-.892 0-2.094-.31-3.083-1.361l-5.025-5.742v7.346l2.19-1.081c1.79.954 3.915 1.391 5.954 1.391 4.406 0 7.956-1.975 7.956-6.265-.005-2.747-1.45-4.63-5-5.839zM104.93 26.492v-4.29l-6.724 1.157 2.343.818V35.66l-2.343 1.975h10.299l-3.575-1.975v-6.27c0-2.996 1.323-5.372 3.022-5.372h.37l3.824 3.61V23s-1.04-1.051-2.358-1.051c-2.901.005-4.397 1.95-4.858 4.544zM146.034 22.202l-6.724 1.157 2.343.818v7.067c0 2.437-1.232 4.447-3.423 4.447-1.759 0-2.652-1.172-2.652-3.427V22.202l-6.719 1.157 2.343.818v8.179c0 3.858 1.942 5.681 4.995 5.681 3.144 0 4.812-1.944 5.456-4.783v4.382h6.724l-2.343-1.975V22.2zM159.183 28.685l-2.835-.954c-1.82-.65-2.56-1.361-2.56-2.778 0-1.451.862-2.563 2.712-2.563.741 0 1.481.279 1.821.771l4.503 4.783v-5.93l-2.094.62c-1.324-.493-2.871-.833-4.377-.833-3.052 0-6.318 1.264-6.318 4.721 0 2.534 1.694 3.859 4.285 4.752l2.865.955c1.232.431 2.343 1.203 2.343 2.807 0 1.361-.801 2.346-2.865 2.346-.553 0-1.42-.152-2.064-.924l-4.473-4.879v6.235l2.034-.711c1.389.589 2.834.924 4.716.924 2.961 0 6.566-.924 6.566-4.66-.005-2.585-1.79-3.788-4.259-4.682zM174.258 28.685l-2.834-.954c-1.821-.65-2.561-1.361-2.561-2.778 0-1.451.862-2.563 2.713-2.563.74 0 1.48.279 1.82.771l4.503 4.783v-5.93l-2.094.62c-1.324-.493-2.87-.833-4.376-.833-3.053 0-6.319 1.264-6.319 4.721 0 2.534 1.694 3.859 4.285 4.752l2.865.955c1.232.431 2.343 1.203 2.343 2.807 0 1.361-.801 2.346-2.865 2.346-.553 0-1.42-.152-2.064-.924l-4.472-4.879v6.235l2.033-.711c1.389.589 2.835.924 4.716.924 2.961 0 6.567-.924 6.567-4.66-.005-2.585-1.79-3.788-4.26-4.682zM214.84 16.962l-6.698 1.163 2.337.812.026 16.688-2.333 1.97 9.041-.015-2.342-1.965-.031-18.653zM280 37.57l-2.338-1.97-.035-18.653-6.699 1.168 2.338.812.03 16.683-2.337 1.975L280 37.57zM225.453 21.816c-4.766.01-8.25 3.34-8.24 8.113.011 4.772 3.504 8.088 8.271 8.083 4.766-.01 8.22-3.341 8.21-8.113-.011-4.773-3.474-8.093-8.241-8.083zm.031 15.231c-2.378.005-3.758-2.02-3.768-7.133-.01-5.2 1.364-7.139 3.743-7.144 2.378-.005 3.757 1.935 3.767 7.134.005 5.112-1.369 7.138-3.742 7.143zM268.91 27.4c-.005-3.934-2.525-5.594-6.977-5.59h-.086c-1.319.016-3.175.33-5.918 1.21l.01 4.62 5.558-5.215H261.958c1.689-.005 2.678 1.132 2.678 2.518l.01 4.28-4.027.005c-3.412.005-5.714 1.488-5.709 4.443.005 2.523 1.911 4.336 4.863 4.33 3.073-.005 4.391-1.792 4.822-3.457h.091l.005 3.046 6.242-.01-2.003-1.965-.02-8.214zm-7.028 8.48c-1.384 0-2.277-.98-2.282-2.768 0-1.386.517-2.955 2.825-3.27l2.216-.157.005 2.554c.005 2.34-1.131 3.635-2.764 3.64z" fill="#121516"/><path d="M208.476 27.172h-9.573l3.21 1.965v6.367c-.715.903-1.872 1.558-3.494 1.558-4.523 0-8.357-4.965-8.357-10.804 0-5.711 3.616-9.082 7.86-9.082 1.841 0 2.743.812 3.585 1.812l4.087 6.184v-8.337l-2.713 1.122c-1.744-1.03-3.773-1.655-5.892-1.655-6.673 0-11.942 4.56-11.942 11.114 0 6.087 5.051 10.616 11.318 10.616 4.741 0 8.387-1.686 9.731-2.874v-6.021l2.18-1.965zM246.538 21.582c-3.18 0-5.477 1.96-6.131 4.798l-.015-9.423-6.699 1.168 2.338.812.02 16.683-2.327 1.97h6.683V35.53c1.501 1.65 3.235 2.472 5.537 2.472 4.711 0 7.612-3.152 7.612-8.21 0-5.056-2.901-8.209-7.018-8.209zm-1.932 15.424c-2.404 0-4.118-2.152-4.118-7.148v-.127c0-3.65 1.714-6.057 4.118-6.057 2.495 0 4.239 2.559 4.239 6.118.005 4.935-1.744 7.214-4.239 7.214z" fill="#121516"/></svg>